<?xml version="1.0" encoding="UTF-8"?>
<svg xmlns="http://www.w3.org/2000/svg" viewBox="0 0 120 120" width="120" height="120">
  <defs>
    <linearGradient id="g" x1="0" x2="1">
      <stop offset="0" stop-color="#0b5ca8" />
      <stop offset="1" stop-color="#58a6ff" />
    </linearGradient>
  </defs>
  <rect width="120" height="120" rx="12" fill="#fff" stroke="url(#g)" stroke-width="3" />
  <g transform="translate(12,12)">
    <!-- Shield -->
    <path d="M48 4 L88 28 V64 C88 84 68 104 48 104 C28 104 8 84 8 64 V28 Z" fill="#0b5ca8" stroke="#083a68" stroke-width="2"/>
    <!-- Book -->
    <rect x="22" y="36" width="52" height="34" rx="3" fill="#fff" />
    <path d="M22 36 Q48 28 74 36" fill="none" stroke="#cfcfcf" stroke-width="1.5"/>
    <!-- Torch -->
    <g transform="translate(42,18)">
      <rect x="-4" y="26" width="8" height="18" fill="#ffc107" rx="2" />
      <path d="M0 10 C6 10 8 18 0 24 C-8 18 -6 10 0 10" fill="#ff7043" />
    </g>
    <!-- Ribbon / initials -->
    <text x="36" y="92" font-family="sans-serif" font-size="9" fill="#fff" font-weight="700">SMAN2</text>
  </g>
</svg>
<svg xmlns="http://www.w3.org/2000/svg" width="160" height="44" viewBox="0 0 160 44" fill="none">
  <rect width="160" height="44" rx="6" fill="#0b5ca8" />
  <text x="14" y="28" fill="#fff" font-family="Segoe UI, Roboto, Arial" font-size="16" font-weight="700">SMAN 2</text>
  <text x="80" y="28" fill="#fff" font-family="Segoe UI, Roboto, Arial" font-size="12">Cikarang Pusat</text>
</svg>
